<svg width="20" height="20" fill="none" xmlns="http://www.w3.org/2000/svg"><g clip-path="url(#clip0_192:14)"><path d="M2.814 0A2.808 2.808 0 000 2.814v14.372A2.808 2.808 0 002.814 20h14.372A2.808 2.808 0 0020 17.186V2.814A2.808 2.808 0 0017.186 0H2.814zm7.634 2.044a4.12 4.12 0 014.115 4.115 4.119 4.119 0 01-4.115 4.115 4.12 4.12 0 01-4.116-4.115 4.12 4.12 0 014.116-4.115zm-.044 2.411c-.919.023-1.66.78-1.66 1.704 0 .94.765 1.704 1.704 1.704a1.705 1.705 0 000-3.408h-.044zm-3.363 5.959c.218 0 .438.06.636.185a5.227 5.227 0 005.541 0 1.206 1.206 0 111.284 2.042 7.71 7.71 0 01-2.39.99l2.302 2.3a1.205 1.205 0 11-1.705 1.706l-2.262-2.261-2.26 2.26a1.202 1.202 0 01-1.705 0 1.205 1.205 0 010-1.704l2.3-2.301a7.73 7.73 0 01-2.39-.99 1.206 1.206 0 01.649-2.227z" fill="#000"/></g><defs><clipPath id="clip0_192:14"><path fill="#fff" d="M0 0h20v20H0z"/></clipPath></defs></svg>