<svg width="20" height="20" fill="none" xmlns="http://www.w3.org/2000/svg"><g clip-path="url(#clip0_192:16)"><path d="M3.544 0A3.536 3.536 0 000 3.544v12.912A3.536 3.536 0 003.544 20h9.504L20 10.002 13.047 0H3.544zm5.322 3.651h2.258c.138 0 .218.051.218.17v12.445c0 .085-.04.136-.159.136H9.955c-.079 0-.138-.068-.138-.119v-4.607h-.991l-2.754 4.607c-.039.085-.118.119-.237.119H4.429c-.158 0-.257-.119-.158-.272l3.03-4.692C5.677 10.825 4.766 9.584 4.766 7.9c0-2.805 1.881-4.25 4.1-4.25zm-.06 1.088c-1.208 0-2.397.867-2.397 2.992 0 2.04 1.268 2.857 2.575 2.857h.833v-5.85h-1.01z" fill="#000"/></g><defs><clipPath id="clip0_192:16"><path fill="#fff" d="M0 0h20v20H0z"/></clipPath></defs></svg>