<svg width="35" height="35" fill="none" xmlns="http://www.w3.org/2000/svg"><g clip-path="url(#clip0_208:37)"><path d="M11.32 17.633c0 .742-.59 1.306-1.336 1.306-.56 0-.973-.316-.973-.91 0-.742.578-1.337 1.32-1.337.565 0 .99.346.99.941zm-6.429-2.946h-.285c-.091 0-.183.061-.195.164l-.261 1.623.498-.019c.669 0 1.185-.09 1.306-.863.14-.814-.376-.905-1.063-.905zm17.257 0h-.273c-.11 0-.183.061-.195.164l-.255 1.623.486-.019c.79 0 1.337-.182 1.337-1.093-.007-.645-.583-.675-1.1-.675zM35 6.805v21.39a2.918 2.918 0 01-2.917 2.917H2.916a2.918 2.918 0 01-2.917-2.917V6.805a2.918 2.918 0 012.917-2.917h29.167A2.918 2.918 0 0135 6.805zM7.796 15.032c0-1.276-.984-1.701-2.109-1.701h-2.43a.32.32 0 00-.316.285l-.996 6.204c-.019.121.073.243.194.243h1.155c.164 0 .316-.176.335-.347l.273-1.617c.062-.437.802-.285 1.094-.285 1.738 0 2.801-1.033 2.801-2.783v.001zm5.117.535h-1.155c-.231 0-.243.335-.255.499-.352-.516-.863-.608-1.44-.608-1.49 0-2.626 1.306-2.626 2.746 0 1.185.742 1.957 1.927 1.957.546 0 1.227-.298 1.61-.723-.036.123-.056.25-.062.377 0 .14.062.243.195.243h1.046c.164 0 .304-.176.334-.346l.62-3.907c.02-.116-.073-.238-.194-.238zm2.46 5.95l3.871-5.628c.031-.03.031-.061.031-.103 0-.103-.09-.212-.194-.212h-1.168a.346.346 0 00-.273.152l-1.61 2.37-.668-2.278a.368.368 0 00-.335-.243h-1.136c-.104 0-.195.11-.195.212 0 .073 1.184 3.452 1.288 3.774-.164.23-1.245 1.738-1.245 1.92 0 .11.09.195.194.195H15.1a.358.358 0 00.274-.158v-.002zm9.68-6.485c0-1.276-.984-1.701-2.108-1.701h-2.413a.336.336 0 00-.335.285l-.984 6.198c-.012.122.079.243.194.243h1.246c.122 0 .213-.09.243-.195l.273-1.762c.062-.437.803-.285 1.094-.285 1.726 0 2.79-1.033 2.79-2.783zm5.116.535h-1.155c-.23 0-.243.335-.261.499-.335-.516-.851-.608-1.441-.608-1.489 0-2.625 1.306-2.625 2.746 0 1.185.742 1.957 1.926 1.957.566 0 1.246-.298 1.61-.723-.018.09-.061.286-.061.377 0 .14.061.243.195.243h1.05c.165 0 .305-.176.335-.346l.62-3.907c.02-.116-.073-.238-.194-.238zm2.886-2.023c0-.122-.09-.212-.194-.212h-1.125c-.09 0-.182.073-.194.164l-.985 6.32-.017.03c0 .11.09.212.212.212h1.003c.152 0 .304-.176.316-.346l.984-6.15v-.018zm-5.468 3.148c-.742 0-1.32.59-1.32 1.336 0 .59.426.911.985.911.73 0 1.319-.559 1.319-1.306.006-.595-.419-.941-.984-.941z" fill="#4A4A4A"/></g><defs><clipPath id="clip0_208:37"><path fill="#fff" d="M0 0h35v35H0z"/></clipPath></defs></svg>