<svg width="35" height="35" fill="none" xmlns="http://www.w3.org/2000/svg"><g clip-path="url(#clip0_207:21)"><path d="M7.577 14.207c.007-.718 0-1.429 0-2.145V9.917c0-.079.025-.121.086-.164.699-.486 1.464-.735 2.32-.675.76.055 1.38.426 1.708 1.32.2.54.25 1.105.25 1.682 0 .529-.043 1.052-.207 1.556-.347 1.081-1.137 1.5-2.17 1.452-.71-.03-1.33-.304-1.907-.71-.054-.049-.085-.098-.078-.171h-.002zm9.412.887c.28.109.565.121.857.09.705-.073 1.33-.346 1.902-.759.054-.036.078-.078.078-.152-.006-.237 0-.48 0-.716 0-.243-.006-.486 0-.73 0-.085-.024-.121-.109-.133-.425-.055-.844-.134-1.27-.176-.425-.036-.85-.019-1.264.115-.407.133-.711.377-.832.796a1.65 1.65 0 00.005.984.999.999 0 00.632.68h.001zM35 6.805v21.39a2.918 2.918 0 01-2.917 2.917H2.916a2.918 2.918 0 01-2.917-2.917V6.805a2.918 2.918 0 012.917-2.917h29.167A2.918 2.918 0 0135 6.805zM22.391 8.258c.024.104.055.206.098.31 1.003 2.467 1.999 4.94 3.007 7.406.086.212.103.39.012.602-.17.376-.297.765-.473 1.136-.159.335-.407.578-.772.68a2.271 2.271 0 01-.785.055c-.128-.012-.254-.043-.382-.048-.171-.012-.255.067-.262.243a6.52 6.52 0 000 .504c.006.279.098.407.377.456.285.048.57.097.862.103.869.019 1.562-.328 2.012-1.088.176-.298.34-.614.468-.936 1.203-3.043 2.4-6.094 3.597-9.144.036-.091.067-.183.08-.28.023-.146-.044-.22-.19-.225-.34-.005-.674 0-1.014 0-.188 0-.322.086-.388.262-.024.067-.055.14-.08.207l-1.768 5.085c-.128.371-.255.736-.395 1.13l-.048-.114-1.968-5.457a45.68 45.68 0 00-.322-.863c-.055-.152-.164-.243-.328-.243a37.74 37.74 0 00-1.167-.007c-.134 0-.2.098-.17.225zm-7.661 6.204c.103.71.461 1.264 1.093 1.616.602.335 1.258.376 1.926.279.773-.115 1.453-.444 2.054-.942.024-.018.049-.036.086-.061.03.195.054.376.09.559.031.159.129.261.274.268.279.005.552.005.832 0 .14-.007.231-.098.243-.238.007-.048.007-.097.007-.14v-5.395c0-.219-.012-.437-.043-.656-.097-.656-.376-1.197-.966-1.543a2.968 2.968 0 00-1.105-.36c-.183-.023-.365-.042-.554-.066h-.608c-.048.005-.097.018-.152.018a7.05 7.05 0 00-1.47.212c-.31.078-.608.194-.911.297-.183.061-.274.195-.267.395.005.17-.007.34 0 .504.005.25.11.316.347.25.394-.103.796-.213 1.196-.292.626-.115 1.258-.164 1.89-.074.328.048.638.146.857.426.188.243.254.535.268.832.018.42.012.844.018 1.264 0 .025-.005.043-.012.074-.024 0-.048 0-.067-.006a9.154 9.154 0 00-1.628-.249c-.578-.03-1.149.007-1.695.195-.657.23-1.185.625-1.496 1.264-.249.504-.28 1.032-.206 1.567l-.002.001zM5.996 8.44v10.652c0 .049 0 .103.007.152.012.152.102.25.249.255.359.007.717.007 1.076 0 .152 0 .243-.102.25-.25.006-.047.006-.102.006-.151V15.41c.055.042.085.073.115.097.911.76 1.957 1.008 3.105.784 1.04-.206 1.756-.844 2.23-1.774.352-.704.505-1.464.529-2.248.03-.869-.062-1.726-.414-2.535-.43-.996-1.148-1.659-2.23-1.878-.164-.036-.335-.049-.499-.073h-.425c-.074.012-.146.018-.219.03a4.08 4.08 0 00-1.932.772c-.12.085-.237.182-.358.273-.006-.03-.019-.048-.024-.073-.024-.14-.043-.28-.067-.419-.036-.237-.152-.335-.388-.34h-.59C6.06 8.019 6 8.087 6 8.439l-.002.001zm23.996 14.103c-.164-.043-.31 0-.462.061a30.735 30.735 0 01-10.968 2.37 30.574 30.574 0 01-4.836-.26 32.27 32.27 0 01-3.22-.602 30.029 30.029 0 01-6.484-2.358c-.535-.267-1.058-.566-1.586-.851-.23-.128-.377-.091-.499.128v.102c.073.098.134.207.225.292a22.45 22.45 0 007.414 4.43 23.26 23.26 0 004.09 1.063c.85.14 1.701.231 2.564.274.183.006.364.012.547.024.043 0 .085.012.128.018h1.075c.043-.005.086-.018.128-.018a22.62 22.62 0 002.71-.243 24.064 24.064 0 003.822-.894c1.8-.583 3.507-1.36 5.067-2.437.171-.116.347-.23.486-.377.262-.267.14-.632-.2-.723l-.001.001zm3.062-1.683c-.048-.255-.242-.352-.461-.426a4.482 4.482 0 00-1.07-.2 7.556 7.556 0 00-1.993.098c-.73.133-1.422.37-2.035.796a.591.591 0 00-.188.183.304.304 0 00-.031.206c.019.079.104.098.183.091.036 0 .073 0 .11-.006l1.184-.128c.583-.055 1.167-.091 1.75-.049.249.019.492.074.73.134.26.066.375.267.387.528.019.407-.073.796-.176 1.185-.212.784-.504 1.543-.808 2.297-.019.048-.043.102-.048.152-.024.152.061.242.207.212a.516.516 0 00.242-.128c.226-.219.456-.438.645-.68.65-.84 1.032-1.8 1.258-2.832.042-.183.073-.371.102-.553.012-.285.012-.583.012-.881z" fill="#4A4A4A"/></g><defs><clipPath id="clip0_207:21"><path fill="#fff" d="M0 0h35v35H0z"/></clipPath></defs></svg>