<svg width="35" height="35" fill="none" xmlns="http://www.w3.org/2000/svg"><g clip-path="url(#clip0_207:23)"><path d="M18.363 15.215c0 1.046-.638 1.647-1.762 1.647h-1.477V13.57h1.484c1.117 0 1.755.595 1.755 1.646zm2.886 3.804c0 .504.438.833 1.125.833.875 0 1.531-.553 1.531-1.332v-.468l-1.428.091c-.809.055-1.228.352-1.228.875v.001zM35 6.745v21.39a2.918 2.918 0 01-2.917 2.917H2.916a2.919 2.919 0 01-2.917-2.918V6.745a2.918 2.918 0 012.917-2.917h29.167A2.918 2.918 0 0135 6.745zM7.766 13.927c.51.042 1.02-.255 1.343-.633.316-.389.523-.91.468-1.44-.45.019-1.009.298-1.331.687-.292.335-.54.875-.48 1.386zm3.682 4.527c-.012-.012-1.19-.462-1.203-1.823-.012-1.137.93-1.684.973-1.714-.535-.79-1.362-.875-1.648-.894-.741-.043-1.373.419-1.726.419-.358 0-.893-.402-1.476-.388a2.179 2.179 0 00-1.853 1.13c-.796 1.373-.207 3.402.565 4.52.377.552.833 1.16 1.429 1.136.564-.024.79-.364 1.47-.364.687 0 .881.364 1.476.359.62-.012 1.003-.553 1.386-1.106.42-.632.595-1.24.608-1.276zm8.227-3.244c0-1.617-1.124-2.723-2.728-2.723h-3.111v8.289h1.288v-2.832h1.781c1.629 0 2.77-1.118 2.77-2.734zm5.47 1.44c0-1.197-.961-1.97-2.431-1.97-1.367 0-2.376.784-2.413 1.853h1.16c.098-.51.572-.844 1.216-.844.79 0 1.227.364 1.227 1.045v.456l-1.605.098c-1.495.09-2.302.705-2.302 1.768 0 1.076.832 1.787 2.029 1.787.808 0 1.555-.407 1.895-1.058h.024v.996h1.192V16.65h.007zm6.21-1.89h-1.306l-1.513 4.897h-.024l-1.513-4.898h-1.355l2.181 6.034-.115.364c-.195.62-.516.863-1.087.863a6.255 6.255 0 01-.377-.018v.996c.073.024.395.03.492.03 1.258 0 1.847-.48 2.363-1.932l2.254-6.337z" fill="#4A4A4A"/></g><defs><clipPath id="clip0_207:23"><path fill="#fff" d="M0 0h35v35H0z"/></clipPath></defs></svg>