<svg width="35" height="35" fill="none" xmlns="http://www.w3.org/2000/svg"><g clip-path="url(#clip0_207:29)"><path d="M29.343 26.876c0 .413-.279.71-.68.71-.414 0-.68-.316-.68-.71 0-.395.266-.711.68-.711.401 0 .68.316.68.71zm-18.886-.711c-.432 0-.68.316-.68.71 0 .395.25.712.68.712.395 0 .662-.298.662-.711-.006-.395-.267-.711-.662-.711zm7.14-.018c-.328 0-.529.212-.577.528h1.16c-.054-.346-.267-.528-.583-.528zm6.55.018c-.413 0-.66.316-.66.71 0 .395.248.712.66.712.414 0 .681-.298.681-.711 0-.395-.268-.711-.68-.711zm6.435 1.586c0 .018.019.03.019.066 0 .019-.019.03-.019.067-.018.019-.018.03-.03.048-.019.019-.03.03-.067.03-.019.02-.03.02-.067.02-.018 0-.03 0-.066-.02-.019 0-.031-.018-.049-.03-.018-.018-.03-.03-.03-.048-.019-.03-.019-.048-.019-.067 0-.03 0-.048.019-.066 0-.031.018-.049.03-.067.019-.019.031-.019.049-.03.03-.02.048-.02.066-.02.03 0 .048 0 .067.02.03.017.048.017.067.03.018.013.012.036.03.067zm-.133.085c.03 0 .03-.019.048-.019.019-.018.019-.03.019-.048 0-.017 0-.03-.019-.048-.017 0-.03-.019-.067-.019h-.097v.213h.048v-.086h.019l.066.086h.049l-.066-.08zM35 6.866v21.39a2.918 2.918 0 01-2.917 2.917H2.916a2.918 2.918 0 01-2.917-2.917V6.866A2.918 2.918 0 012.916 3.95h29.167A2.918 2.918 0 0135 6.866zM3.89 15.348a8.418 8.418 0 008.415 8.416 8.48 8.48 0 004.648-1.403c-4.43-3.603-4.399-10.403 0-14.007a8.427 8.427 0 00-4.648-1.403c-4.642-.006-8.416 3.767-8.416 8.398zM17.5 21.96c4.284-3.342 4.266-9.856 0-13.216-4.266 3.36-4.284 9.88 0 13.216zm-8.647 4.637c0-.529-.347-.875-.894-.894-.28 0-.577.085-.777.395-.146-.25-.395-.395-.742-.395a.772.772 0 00-.644.328v-.267h-.498v2.23h.498c0-1.148-.152-1.835.547-1.835.62 0 .498.62.498 1.835h.48c0-1.112-.151-1.835.547-1.835.62 0 .498.608.498 1.835h.499v-1.397h-.012zm2.729-.833h-.48v.267a.877.877 0 00-.711-.328c-.626 0-1.106.499-1.106 1.173 0 .68.48 1.172 1.106 1.172.316 0 .546-.116.71-.328V28h.48v-2.236zm2.46 1.556c0-.912-1.39-.5-1.39-.925 0-.346.722-.29 1.124-.066l.2-.395c-.571-.37-1.835-.364-1.835.499 0 .868 1.39.504 1.39.91 0 .384-.82.353-1.257.049l-.212.383c.68.461 1.98.364 1.98-.456zm2.152.564l-.133-.413c-.231.126-.742.266-.742-.25v-1.008h.796v-.45h-.796v-.68h-.499v.68h-.461v.444h.461v1.015c0 1.07 1.051.875 1.374.662zm.807-.814h1.671c0-.984-.449-1.373-1.057-1.373-.644 0-1.106.48-1.106 1.172 0 1.246 1.374 1.453 2.054.863l-.23-.364c-.474.39-1.192.352-1.332-.298zm3.592-1.306c-.279-.121-.704-.11-.923.267v-.267h-.499v2.23h.499v-1.257c0-.706.577-.614.778-.511l.145-.462zm.644 1.112c0-.694.706-.918 1.258-.511l.23-.395c-.705-.552-1.986-.25-1.986.911 0 1.203 1.36 1.446 1.987.911l-.23-.395c-.56.395-1.259.159-1.259-.522zm4.053-1.112h-.5v.267c-.503-.668-1.816-.29-1.816.845 0 1.167 1.36 1.5 1.817.844V28h.499v-2.236zm2.047 0c-.145-.073-.668-.176-.923.267v-.267h-.48v2.23h.48v-1.257c0-.669.547-.626.778-.511l.145-.462zm2.45-.905h-.481v1.172c-.499-.662-1.817-.31-1.817.845 0 1.179 1.367 1.494 1.817.844V28h.48v-3.141zm.462-4.563v.28h.048v-.28h.115v-.049h-.28v.049h.117zm.4 7.521c0-.03 0-.066-.017-.097-.019-.019-.031-.048-.049-.067-.017-.018-.048-.03-.066-.048-.03 0-.067-.018-.098-.018-.018 0-.048.018-.085.018a.368.368 0 00-.067.048c-.03.018-.048.048-.048.067-.018.03-.018.067-.018.097 0 .019 0 .048.018.086 0 .018.019.048.048.066a.197.197 0 00.067.048c.03.018.067.018.085.018.031 0 .067 0 .098-.018.018-.018.048-.03.066-.048.019-.017.031-.048.049-.066.017-.037.017-.067.017-.086zm.195-7.576h-.086l-.097.212-.097-.212h-.086v.328h.049v-.25l.097.213h.067l.085-.212v.249h.067v-.328zm.267-4.893c0-4.63-3.774-8.403-8.416-8.403a8.47 8.47 0 00-4.648 1.404c4.381 3.603 4.448 10.42 0 14.006a8.457 8.457 0 004.648 1.403c4.642.007 8.416-3.761 8.416-8.41z" fill="#4A4A4A"/></g><defs><clipPath id="clip0_207:29"><path fill="#fff" d="M0 0h35v35H0z"/></clipPath></defs></svg>