<svg width="35" height="35" fill="none" xmlns="http://www.w3.org/2000/svg"><g clip-path="url(#clip0_208:33)"><path d="M28.566 16s.461 2.26.565 2.734h-2.029l.972-2.644c-.012.019.2-.553.322-.906l.17.815zM35 6.804v21.39a2.918 2.918 0 01-2.917 2.917H2.916a2.918 2.918 0 01-2.917-2.917V6.805a2.918 2.918 0 012.917-2.917h29.167A2.918 2.918 0 0135 6.805zM9.266 22.07l3.84-9.43h-2.582l-2.388 6.44-.261-1.306-.85-4.339c-.14-.601-.572-.772-1.107-.796h-3.93l-.043.188c.9.221 1.763.571 2.563 1.04l2.176 8.203h2.582zm5.737.012l1.531-9.443h-2.442l-1.525 9.443h2.436zm8.5-3.087c.013-1.075-.644-1.895-2.047-2.57-.856-.432-1.38-.723-1.38-1.167.013-.402.445-.815 1.404-.815a4.182 4.182 0 011.817.359l.219.102.334-2.042a6.073 6.073 0 00-2.187-.401c-2.413 0-4.108 1.288-4.12 3.123-.019 1.355 1.215 2.108 2.139 2.563.942.462 1.264.766 1.264 1.173-.012.632-.765.923-1.464.923-.973 0-1.495-.152-2.291-.504l-.322-.152-.34 2.12c.57.262 1.628.493 2.722.505 2.564.005 4.235-1.265 4.254-3.22l-.001.003zm8.58 3.087l-1.969-9.443h-1.89c-.583 0-1.027.17-1.276.785l-3.628 8.659h2.564s.418-1.167.51-1.416h3.136c.073.335.292 1.416.292 1.416l2.261-.001z" fill="#4A4A4A"/></g><defs><clipPath id="clip0_208:33"><path fill="#fff" d="M0 0h35v35H0z"/></clipPath></defs></svg>