<svg width="30" height="30" fill="none" xmlns="http://www.w3.org/2000/svg"><path d="M15 30C6.715 30 0 23.285 0 15S6.715 0 15 0s15 6.715 15 15-6.715 15-15 15zm6.263-23.093l-10.3 5.859-4.909-2.791-.506 1.006 5.415 3.117L22.15 7.712l-.886-.804zm-2.251-1.282l-8.049 4.601L7.395 8.19l-.733.88 4.301 2.439 9.237-5.28-1.188-.604zm3.922 2.917l-11.97 6.839-5.82-3.32-.28 1.107 6.1 3.47L23.59 9.422l-.657-.88zm1.822 3.243l-.557-1.408-13.236 7.543-6.275-3.545v.678c0 1.374.274 2.733.81 3.999a9.908 9.908 0 002.2 3.268 10.65 10.65 0 003.265 2.163 10.174 10.174 0 008.049 0 10.172 10.172 0 003.29-2.163 10.447 10.447 0 002.2-3.268l.254-.679c.37-1.072.556-2.18.556-3.319 0-1.14-.185-2.229-.556-3.269z" fill="#4A4A4A"/></svg>