<svg width="27" height="25" fill="none" xmlns="http://www.w3.org/2000/svg"><path d="M22.663 3.517A11.93 11.93 0 0014.173 0a11.913 11.913 0 00-8.596 3.625.652.652 0 00.01.916.652.652 0 00.916-.01 10.634 10.634 0 017.67-3.233c5.91-.005 10.715 4.8 10.715 10.709S20.083 22.72 14.174 22.72c-5.91 0-10.714-4.805-10.714-10.714v-.135l1.066 1.067a.649.649 0 00.916-.916l-2.166-2.17a.647.647 0 00-.915 0L.19 12.022a.647.647 0 10.916.916l1.066-1.067v.135a11.93 11.93 0 003.518 8.49 11.93 11.93 0 008.489 3.517 11.93 11.93 0 008.49-3.518 11.926 11.926 0 003.511-8.49 11.93 11.93 0 00-3.517-8.489z" fill="#2F3035"/><path d="M17.61 7.638l-7.94 7.935a.647.647 0 10.916.915l7.94-7.94a.647.647 0 000-.915.652.652 0 00-.916.005zm-2.079 5.344c-.9.9-.9 2.37 0 3.27a2.302 2.302 0 001.638.678c.619 0 1.2-.242 1.637-.678.9-.9.9-2.37 0-3.27a2.312 2.312 0 00-3.275 0zm2.36 2.36a1.028 1.028 0 01-1.444 0 1.021 1.021 0 010-1.444 1.028 1.028 0 011.444 0 1.021 1.021 0 010 1.443zM11.2 7.062c-.62 0-1.201.242-1.637.679a2.302 2.302 0 00-.68 1.637c0 .62.243 1.201.68 1.638a2.302 2.302 0 001.637.678c.62 0 1.201-.242 1.638-.678a2.302 2.302 0 00.678-1.638 2.3 2.3 0 00-.678-1.637 2.311 2.311 0 00-1.638-.68zm.722 3.038a1.028 1.028 0 01-1.444 0 1.028 1.028 0 010-1.444 1.028 1.028 0 011.444 0c.194.194.296.447.296.722 0 .27-.102.528-.296.722z" fill="#2F3035"/></svg>