<svg width="25" height="23" fill="none" xmlns="http://www.w3.org/2000/svg"><path d="M0 3.093v-.008l.003-.032c0-.004 0-.008.002-.012a.348.348 0 01.018-.07c0-.002 0-.004.002-.006L1.018.422A.66.66 0 011.636 0h1.809a.357.357 0 110 .714H1.67L.88 2.738h7.474L8.822.714h-2.76a.357.357 0 110-.714h14.442a.66.66 0 01.618.422l.993 2.543.002.006a.342.342 0 01.018.07l.002.012.002.032V8.34a.357.357 0 11-.713 0V3.452h-7.567v5.426a.541.541 0 01-.898.404L11.07 7.607 9.18 9.282a.54.54 0 01-.9-.404V3.452H.715v16.012c0 .256.208.464.465.464h6.545v-.012c.001-.032.002-.064.005-.096a1.286 1.286 0 01-1.471-1.827l.008-.015a1.26 1.26 0 01.045-.08l.01-.015c.017-.026.034-.052.053-.078h.001a.863.863 0 01.06-.073l.01-.012a.982.982 0 01.063-.066l.013-.012c.023-.021.046-.042.07-.061l.002-.002c.024-.02.05-.038.074-.055l.014-.01c.025-.017.051-.033.078-.048l.006-.004c-.15-.13-.27-.296-.347-.486a1.276 1.276 0 01.005-.983 1.275 1.275 0 01.699-.691l5.556-2.266-2.586-.8a1.173 1.173 0 01-.773-1.463c.07-.23.211-.424.392-.566.27-.21.63-.306.986-.231l.005.001a164.583 164.583 0 004.61.957 93.028 93.028 0 00.487.091c2.6.48 3.33.488 3.533.46h.003l.009-.001.005-.001h.005a.253.253 0 00.03-.008l.058-.024-.073-.178a.706.706 0 01.07-.668.705.705 0 01.32-.259l1.918-.781a.706.706 0 01.543.003c.175.073.311.21.383.386l2.344 5.75a.711.711 0 01-.39.927l-1.917.782a.708.708 0 01-.926-.39l-.018-.043-.442.18a3.923 3.923 0 00-1.576 1.176 4.639 4.639 0 01-1.863 1.39l-.497.202h3.643a.465.465 0 00.465-.464v-.904a.357.357 0 11.714 0v.904a1.18 1.18 0 01-1.179 1.178h-5.394l-4.599 1.875a1.287 1.287 0 01-1.762-1.327 1.316 1.316 0 01-.711-.094 1.272 1.272 0 01-.553-.454H1.18A1.18 1.18 0 010 19.464V3.093zM12.585.714h-3.03l-.468 2.024h3.966L12.585.714zm1.2 2.024h7.475L20.47.714h-7.153l.469 2.024zm-4.79 5.754l1.717-1.521a.54.54 0 01.716 0l1.717 1.52v-5.04h-4.15v5.04zm13.379 8.258l1.911-.78-2.342-5.743-1.911.78 2.342 5.743zM8.112 18.904l.41-.167 4.268-1.74a.357.357 0 11.27.661l-4.268 1.74a.586.586 0 00-.052.024l-.013.008-.035.021-.015.011-.03.022-.015.014-.025.023-.015.017-.022.023-.014.02-.018.023-.013.022-.016.024-.011.024c-.004.008-.009.016-.012.025l-.01.025-.01.025-.007.027-.007.025-.005.027-.004.027-.003.027-.002.027v.055l.004.026c0 .01.001.02.003.029l.005.026.007.029.008.025.01.029a.572.572 0 01.008.02l.001.004a.555.555 0 00.294.289.605.605 0 00.464.006l.756-.308.011-.004.01-.005 3.471-1.415a.357.357 0 11.27.661l-3.47 1.415-.012.004-.01.005a.571.571 0 00.43 1.056l4.663-1.901h.001l2.184-.89a3.922 3.922 0 001.575-1.176 4.625 4.625 0 011.863-1.39l.442-.18-.881-2.163-.833-2.043-.062.025c-.058.023-.14.057-.362.065-.278.013-.737-.016-1.559-.132a51.36 51.36 0 01-2.219-.373c-.03-.005-.06-.01-.089-.017l-.103-.019-.11-.02-.09-.018-.138-.026-.071-.014-.216-.041a165.638 165.638 0 01-4.145-.869l-.027-.004a.469.469 0 00-.52.313.455.455 0 00.302.57l3.539 1.096a.357.357 0 01.029.672l-6.48 2.642a.566.566 0 00-.313.743.567.567 0 00.526.356h.003a.453.453 0 00.052-.003l.015-.002.04-.005c.008-.002.016-.005.025-.006l.03-.008.03-.01.023-.008 4.267-1.74a.357.357 0 11.27.66l-5.174 2.11a.57.57 0 00-.156.96l.01.01a.572.572 0 00.577.087l.496-.203z" fill="#2F3035"/></svg>