<svg width="27" height="23" fill="none" xmlns="http://www.w3.org/2000/svg"><path d="M5.523 16.874h10.118c1.46 0 2.753-.957 3.148-2.328l3.42-11.588c.121-.42.525-.708.986-.708h2.68a1.125 1.125 0 100-2.25h-2.68c-1.459 0-2.751.957-3.146 2.329l-.64 2.17H2.202c-.702 0-1.368.335-1.78.895a2.126 2.126 0 00-.324 1.908l2.32 7.366a3.265 3.265 0 003.105 2.206zM2.201 6.75h-.01.01zM14.625 22.5c1.241 0 2.25-1.01 2.25-2.25a2.252 2.252 0 00-2.25-2.25 2.253 2.253 0 00-2.25 2.25c0 1.24 1.01 2.25 2.25 2.25zm0-2.252v.001zM6.75 22.5a2.25 2.25 0 100-4.5 2.25 2.25 0 000 4.5zm0-2.252v.001z" fill="#C89106"/></svg>