<svg width="27" height="23" fill="none" xmlns="http://www.w3.org/2000/svg"><path d="M5.16 16.875h10.58a2.81 2.81 0 002.7-2.043L22.017 2.35a1.684 1.684 0 011.62-1.224h2.802a.563.563 0 000-1.125h-2.802a2.81 2.81 0 00-2.7 2.043L20.23 4.5H1.688a1.67 1.67 0 00-1.353.68 1.67 1.67 0 00-.262 1.49l2.42 8.27a2.808 2.808 0 002.667 1.934zm14.748-11.25l-2.55 8.901a1.682 1.682 0 01-1.62 1.224H5.16a1.698 1.698 0 01-1.593-1.145L1.15 6.35a.558.558 0 01.088-.498.554.554 0 01.451-.227h18.22zM14.625 22.5c1.24 0 2.25-1.009 2.25-2.25 0-1.24-1.01-2.25-2.25-2.25a2.253 2.253 0 00-2.25 2.25 2.252 2.252 0 002.25 2.25zm0-3.375a1.126 1.126 0 010 2.25 1.126 1.126 0 010-2.25zM6.75 22.5C7.99 22.5 9 21.491 9 20.25 9 19.01 7.99 18 6.75 18a2.253 2.253 0 00-2.25 2.25 2.252 2.252 0 002.25 2.25zm0-3.375a1.126 1.126 0 010 2.25 1.126 1.126 0 010-2.25z" fill="#2F3035"/></svg>