<svg width="60" height="60" fill="none" xmlns="http://www.w3.org/2000/svg"><path d="M56.1 31.144l-5.625-13.125a1.874 1.874 0 00-1.725-1.144h-5.625v-3.75a1.875 1.875 0 00-1.875-1.875H5.625a1.875 1.875 0 00-1.875 1.875V45a1.875 1.875 0 001.875 1.875h4.012a7.5 7.5 0 0014.476 0h11.775a7.5 7.5 0 0014.474 0h4.013A1.875 1.875 0 0056.25 45V31.875c0-.251-.051-.5-.15-.731zM43.125 20.625h4.388L51.525 30h-8.4v-9.375zM16.875 48.75a3.75 3.75 0 110-7.5 3.75 3.75 0 010 7.5zm19.013-5.625H24.113a7.5 7.5 0 00-14.476 0H7.5V15h31.875v23.55a7.5 7.5 0 00-3.487 4.575zm7.237 5.625a3.75 3.75 0 110-7.5 3.75 3.75 0 010 7.5zm9.375-5.625h-2.138a7.5 7.5 0 00-7.237-5.625v-3.75H52.5v9.375z" fill="#C89106"/></svg>