<svg width="24" height="21" fill="none" xmlns="http://www.w3.org/2000/svg"><path d="M22.096 2.055C20.854.73 19.15 0 17.296 0c-1.386 0-2.654.43-3.771 1.28A7.646 7.646 0 0012 2.846a7.641 7.641 0 00-1.525-1.566A6.102 6.102 0 006.705 0C4.85 0 3.145.73 1.903 2.055.676 3.365 0 5.155 0 7.094c0 1.996.756 3.823 2.38 5.75 1.453 1.725 3.541 3.475 5.959 5.501.826.692 1.761 1.477 2.733 2.312a1.422 1.422 0 001.855 0c.972-.835 1.909-1.62 2.735-2.313 2.417-2.026 4.505-3.776 5.958-5.5C23.244 10.917 24 9.09 24 7.094c0-1.94-.676-3.73-1.904-5.039z" fill="#C89106"/></svg>