<svg width="60" height="60" fill="none" xmlns="http://www.w3.org/2000/svg"><rect width="60" height="60" rx="1" fill="#C89106"/><path d="M9.572 53c-.035 0-.052-.022-.052-.065l.026-8.931c0-.035.017-.052.052-.052h1.586c.035 0 .065.017.091.052l1.183 1.716 1.183-1.716c.026-.035.056-.052.091-.052h1.599c.035 0 .052.017.052.052l.026 8.931c0 .043-.017.065-.052.065h-1.469c-.035 0-.052-.022-.052-.065l-.013-6.63-1.365 1.976-1.352-1.976-.013 6.63c0 .043-.017.065-.052.065H9.572zm7.047 0c-.034 0-.052-.022-.052-.065l.013-8.931c0-.035.018-.052.052-.052h4.173c.035 0 .052.022.052.065v1.456c0 .035-.017.052-.052.052H18.14v2.028h2.665c.035 0 .052.017.052.052l.013 1.469c0 .035-.017.052-.052.052H18.14v2.275h2.678c.035 0 .052.022.052.065v1.482c0 .035-.017.052-.052.052H16.62zm5.524 0c-.034 0-.052-.022-.052-.065l.026-8.931c0-.035.018-.052.052-.052h2.496c.494 0 .936.121 1.326.364.39.234.698.546.923.936.226.39.338.815.338 1.274 0 .373-.086.72-.26 1.04-.164.32-.364.58-.598.78a2.705 2.705 0 01.793 1.911c0 .503-.12.962-.364 1.378-.242.416-.572.75-.988 1.001A2.616 2.616 0 0124.47 53h-2.327zm1.534-5.46h.988c.304 0 .546-.104.728-.312.191-.217.286-.45.286-.702 0-.277-.1-.516-.299-.715a.956.956 0 00-.715-.312h-.988v2.041zm-.013 3.874h.806a1.1 1.1 0 00.806-.338c.226-.234.338-.507.338-.819a1.1 1.1 0 00-.338-.806 1.1 1.1 0 00-.806-.338h-.793l-.013 2.301zM28.24 53c-.035 0-.052-.022-.052-.065l.013-8.931c0-.035.017-.052.052-.052h4.173c.034 0 .052.022.052.065v1.456c0 .035-.018.052-.052.052H29.76v2.028h2.665c.034 0 .052.017.052.052l.013 1.469c0 .035-.018.052-.052.052H29.76v2.275h2.678c.034 0 .052.022.052.065v1.482c0 .035-.018.052-.052.052h-4.2zm5.524 0c-.035 0-.052-.022-.052-.065l.013-8.918c0-.043.021-.065.065-.065h1.443c.043 0 .065.022.065.065l-.013 7.384h2.678c.043 0 .065.022.065.065v1.469c0 .043-.022.065-.065.065h-4.2zm5.232 0c-.035 0-.052-.017-.052-.052v-1.469c0-.035.017-.052.052-.052h1.469c.034 0 .052.017.052.052v1.469c0 .035-.018.052-.052.052h-1.47zm2.705 0c-.034 0-.052-.022-.052-.065l.026-8.931c0-.035.018-.052.052-.052h2.626c.468 0 .897.117 1.287.351.399.225.715.533.95.923.233.381.35.815.35 1.3 0 .32-.047.611-.143.871a2.86 2.86 0 01-.338.65c-.13.173-.247.303-.35.39.467.52.701 1.131.701 1.833l.013 2.665c0 .043-.021.065-.065.065h-1.469c-.034 0-.052-.013-.052-.039V50.27a1.1 1.1 0 00-.338-.806 1.054 1.054 0 00-.806-.351h-.858l-.013 3.822c0 .043-.017.065-.052.065H41.7zm1.534-5.447h1.118c.269 0 .507-.1.715-.299a.97.97 0 00.312-.728.956.956 0 00-.312-.715.976.976 0 00-.715-.299h-1.118v2.041zm7.143 5.577a2.43 2.43 0 01-1.274-.351 2.764 2.764 0 01-.936-.962 2.622 2.622 0 01-.338-1.313l.026-6.5c0-.035.017-.052.052-.052h1.456c.034 0 .052.017.052.052v6.5c0 .295.09.546.273.754.19.2.42.299.689.299.277 0 .507-.1.689-.299.19-.208.286-.46.286-.754v-6.5c0-.035.017-.052.052-.052h1.456c.034 0 .052.017.052.052l.026 6.5c0 .485-.117.927-.351 1.326a2.553 2.553 0 01-.923.949c-.382.234-.81.351-1.287.351zM45.66 12h-31.8c-1.023 0-1.86.93-1.86 1.85s.837 1.85 1.86 1.85h.449v3.7h30.947v-3.7h.404c1.024 0 1.86-.93 1.86-1.85S46.684 12 45.66 12zm-15.9 5.565a.943.943 0 01-.93-.956c0-.528.416-.956.93-.956s.93.428.93.956a.943.943 0 01-.93.956zm-15.451 9.233h30.947V20.88H14.31v5.919zm15.451-3.976c.514 0 .93.428.93.955a.942.942 0 01-.93.956.943.943 0 01-.93-.956c0-.527.416-.955.93-.955zm-15.451 9.08v4.303c0 .525.066.956.577.956h3.718c.511 0 .743-.43.743-.956v-2.746h20.871v2.746c0 .525.187.956.697.956h3.719c.51 0 .622-.43.622-.956V28.28H14.309v3.622zm15.451-1.911c.514 0 .93.428.93.955 0 .53-.416.956-.93.956a.942.942 0 01-.93-.956c0-.526.416-.955.93-.955z" fill="#fff"/></svg>