<svg width="357" height="118" fill="none" xmlns="http://www.w3.org/2000/svg"><path d="M11.96 95c-.266 0-.4-.167-.4-.5l.2-68.7c0-.267.134-.4.4-.4h12.2c.267 0 .5.133.7.4l9.1 13.2 9.1-13.2c.2-.267.434-.4.7-.4h12.3c.267 0 .4.133.4.4l.2 68.7c0 .333-.133.5-.4.5h-11.3c-.266 0-.4-.167-.4-.5l-.1-51-10.5 15.2-10.4-15.2-.1 51c0 .333-.133.5-.4.5h-11.3zm54.212 0c-.267 0-.4-.167-.4-.5l.1-68.7c0-.267.133-.4.4-.4h32.1c.266 0 .4.167.4.5v11.2c0 .267-.134.4-.4.4h-20.5v15.6h20.5c.266 0 .4.133.4.4l.1 11.3c0 .267-.134.4-.4.4h-20.6v17.5h20.6c.266 0 .4.167.4.5v11.4c0 .267-.134.4-.4.4h-32.3zm42.492 0c-.267 0-.4-.167-.4-.5l.2-68.7c0-.267.133-.4.4-.4h19.2c3.8 0 7.2.933 10.2 2.8 3 1.8 5.366 4.2 7.1 7.2 1.733 3 2.6 6.267 2.6 9.8 0 2.867-.667 5.533-2 8-1.267 2.467-2.8 4.467-4.6 6a20.81 20.81 0 014.5 6.7 20.42 20.42 0 011.6 8c0 3.867-.934 7.4-2.8 10.6-1.867 3.2-4.4 5.767-7.6 7.7-3.134 1.867-6.634 2.8-10.5 2.8h-17.9zm11.8-42h7.6c2.333 0 4.2-.8 5.6-2.4 1.466-1.667 2.2-3.467 2.2-5.4 0-2.133-.767-3.967-2.3-5.5-1.534-1.6-3.367-2.4-5.5-2.4h-7.6V53zm-.1 29.8h6.2c2.4 0 4.466-.867 6.2-2.6 1.733-1.8 2.6-3.9 2.6-6.3s-.867-4.467-2.6-6.2c-1.734-1.733-3.8-2.6-6.2-2.6h-6.1l-.1 17.7zM155.55 95c-.266 0-.4-.167-.4-.5l.1-68.7c0-.267.134-.4.4-.4h32.1c.267 0 .4.167.4.5v11.2c0 .267-.133.4-.4.4h-20.5v15.6h20.5c.267 0 .4.133.4.4l.1 11.3c0 .267-.133.4-.4.4h-20.6v17.5h20.6c.267 0 .4.167.4.5v11.4c0 .267-.133.4-.4.4h-32.3zm42.493 0c-.267 0-.4-.167-.4-.5l.1-68.6c0-.333.166-.5.5-.5h11.1c.333 0 .5.167.5.5l-.1 56.8h20.6c.333 0 .5.167.5.5v11.3c0 .333-.167.5-.5.5h-32.3zm61.058 0c-.266 0-.4-.167-.4-.5l.2-68.7c0-.267.134-.4.4-.4h20.2c3.6 0 6.9.9 9.9 2.7 3.067 1.733 5.5 4.1 7.3 7.1 1.8 2.933 2.7 6.267 2.7 10 0 2.467-.366 4.7-1.1 6.7-.733 1.933-1.6 3.6-2.6 5-1 1.333-1.9 2.333-2.7 3 3.6 4 5.4 8.7 5.4 14.1l.1 20.5c0 .333-.166.5-.5.5h-11.3c-.266 0-.4-.1-.4-.3V74c0-2.4-.866-4.467-2.6-6.2-1.666-1.8-3.733-2.7-6.2-2.7h-6.6l-.1 29.4c0 .333-.133.5-.4.5h-11.3zm11.8-41.9h8.6c2.067 0 3.9-.767 5.5-2.3s2.4-3.4 2.4-5.6c0-2.133-.8-3.967-2.4-5.5-1.533-1.533-3.366-2.3-5.5-2.3h-8.6v15.7zM325.843 96c-3.533 0-6.8-.9-9.8-2.7-3-1.867-5.4-4.333-7.2-7.4-1.733-3.067-2.6-6.433-2.6-10.1l.2-50c0-.267.134-.4.4-.4h11.2c.267 0 .4.133.4.4v50c0 2.267.7 4.2 2.1 5.8 1.467 1.533 3.234 2.3 5.3 2.3 2.134 0 3.9-.767 5.3-2.3 1.467-1.6 2.2-3.533 2.2-5.8v-50c0-.267.134-.4.4-.4h11.2c.267 0 .4.133.4.4l.2 50c0 3.733-.9 7.133-2.7 10.2-1.733 3.067-4.1 5.5-7.1 7.3-2.933 1.8-6.233 2.7-9.9 2.7z" fill="#fff"/><path d="M238.289 95c-.267 0-.4-.133-.4-.4V83.3c0-.267.133-.4.4-.4h11.3c.266 0 .4.133.4.4v11.3c0 .267-.134.4-.4.4h-11.3z" fill="#DAAF40"/><circle cx="325.5" cy="29.5" r="3.5" fill="#DAAF40"/><circle cx="325.5" cy="44.5" r="3.5" fill="#DAAF40"/><circle cx="325.5" cy="59.5" r="3.5" fill="#DAAF40"/><circle cx="325.5" cy="74.5" r="3.5" fill="#DAAF40"/></svg>