<svg width="24" height="24" fill="none" xmlns="http://www.w3.org/2000/svg"><path d="M13.515 17.562v-4.13a.336.336 0 10-.673 0v4.13a.336.336 0 00.673 0z" fill="#2F3035"/><path d="M22.573 4.488h-.81V2.992a.413.413 0 00-.413-.413h-1.578V.561a.561.561 0 00-.56-.561H3.791a.561.561 0 00-.561.56v2.02H1.776a.413.413 0 00-.413.412v1.496H.43a.43.43 0 00-.43.429v1.316c0 .237.193.43.43.43h.15v16.032c0 .186.151.337.337.337h21.167c.185 0 .336-.15.336-.337v-5.133a.336.336 0 10-.673 0v4.797h-.977V8.471a.51.51 0 00-.51-.51h-8.986a.337.337 0 000 .674h2.867v13.724H8.86V8.635h.85a.336.336 0 100-.673H2.742a.51.51 0 00-.51.51v13.887h-.977V6.662h20.494v9.329a.336.336 0 10.673 0V6.662h.152a.43.43 0 00.43-.429V4.917a.43.43 0 00-.43-.43zm-7.758 4.147h5.283v2.522h-5.283V8.635zm0 3.195h5.283v7.333h-5.283V11.83zm0 8.007h5.283v2.522h-5.283v-2.523zM2.905 8.635h5.282v2.522H2.905V8.635zm0 3.195h5.282v7.333H2.905V11.83zm0 8.007h5.282v2.522H2.905v-2.523zM19.772 3.252h1.318v1.236h-1.318V3.252zM3.904.673h15.195v3.815H3.904V.673zm-1.868 2.58h1.195v1.235H2.036V3.252zM22.33 5.988H.673V5.16H22.33v.828z" fill="#2F3035"/></svg>