<svg width="60" height="60" fill="none" xmlns="http://www.w3.org/2000/svg"><g clip-path="url(#clip0_143:14)"><path d="M31.56.836a1.875 1.875 0 00-3.12 0L17.19 17.711a1.875 1.875 0 001.56 2.914h.367l-7.582 12.131a1.875 1.875 0 001.59 2.869h.716L7.7 47.91a1.875 1.875 0 001.676 2.715H26.25V60h7.5v-9.375h16.875A1.874 1.874 0 0052.3 47.91l-6.139-12.285h.717a1.875 1.875 0 001.59-2.869l-7.587-12.131h.368a1.875 1.875 0 001.56-2.914L31.56.836z" fill="#C89106"/></g><defs><clipPath id="clip0_143:14"><path fill="#fff" d="M0 0h60v60H0z"/></clipPath></defs></svg>