<svg width="19" height="23" fill="none" xmlns="http://www.w3.org/2000/svg"><path d="M9.5 11c1.511 0 2.82-.542 3.889-1.611C14.458 8.319 15 7.01 15 5.499c0-1.51-.542-2.818-1.611-3.888C12.319.542 11.01 0 9.5 0 7.989 0 6.68.542 5.611 1.611 4.542 2.681 4 3.99 4 5.5c0 1.511.542 2.82 1.612 3.889C6.68 10.458 7.989 11 9.5 11z" fill="#C89106"/><path d="M18.954 17.637a13.74 13.74 0 00-.185-1.467 11.725 11.725 0 00-.353-1.475 7.358 7.358 0 00-.595-1.375 5.18 5.18 0 00-.897-1.191 3.948 3.948 0 00-1.288-.825A4.38 4.38 0 0013.99 11c-.233 0-.457.097-.892.386-.267.177-.58.383-.928.61-.299.194-.703.375-1.202.54a4.69 4.69 0 01-1.47.242c-.488 0-.982-.082-1.47-.243-.498-.164-.902-.345-1.2-.539-.346-.225-.659-.43-.93-.61-.433-.289-.658-.386-.89-.386-.593 0-1.146.102-1.645.304-.501.202-.935.48-1.289.825-.338.33-.64.73-.896 1.191a7.368 7.368 0 00-.595 1.375c-.143.454-.262.95-.354 1.475a14.01 14.01 0 00-.184 1.467c-.03.444-.046.905-.046 1.37 0 1.213.378 2.194 1.123 2.917C1.86 22.638 2.833 23 4.017 23h10.966c1.184 0 2.158-.362 2.894-1.076.745-.723 1.123-1.704 1.123-2.916 0-.468-.016-.93-.046-1.371z" fill="#C89106"/></svg>