<svg width="19" height="24" fill="none" xmlns="http://www.w3.org/2000/svg"><path d="M9.5 11.138c1.511 0 2.82-.542 3.889-1.611C14.458 8.457 15 7.149 15 5.638c0-1.51-.542-2.82-1.611-3.889C12.319.68 11.01.14 9.5.14c-1.511 0-2.82.541-3.889 1.61C4.542 2.82 4 4.127 4 5.638c0 1.511.542 2.82 1.611 3.889 1.07 1.069 2.378 1.611 3.889 1.611zM6.558 2.696c.82-.82 1.782-1.22 2.942-1.22 1.16 0 2.122.4 2.943 1.22.82.82 1.219 1.783 1.219 2.942 0 1.16-.4 2.122-1.22 2.943C11.623 9.4 10.66 9.8 9.5 9.8c-1.16 0-2.122-.399-2.942-1.22-.82-.82-1.22-1.782-1.22-2.942 0-1.16.4-2.122 1.22-2.942z" fill="#2F3035"/><path d="M18.954 17.775c-.03-.452-.093-.946-.185-1.467a11.725 11.725 0 00-.353-1.474 7.353 7.353 0 00-.595-1.376 5.175 5.175 0 00-.897-1.191 3.944 3.944 0 00-1.288-.825 4.378 4.378 0 00-1.645-.304c-.233 0-.457.098-.892.386-.267.177-.58.383-.928.61-.299.194-.703.375-1.202.54a4.69 4.69 0 01-1.47.242c-.488 0-.982-.082-1.47-.242-.498-.165-.902-.346-1.2-.54-.346-.225-.659-.43-.93-.61-.434-.289-.658-.386-.89-.386-.593 0-1.146.102-1.645.304-.501.202-.935.48-1.289.825-.338.33-.64.73-.896 1.191a7.37 7.37 0 00-.595 1.376c-.143.453-.262.95-.354 1.474-.092.52-.154 1.014-.184 1.467-.03.444-.046.905-.046 1.371 0 1.212.378 2.193 1.123 2.916.736.714 1.71 1.076 2.894 1.076h10.966c1.184 0 2.158-.362 2.894-1.076.745-.723 1.123-1.704 1.123-2.916 0-.468-.016-.93-.046-1.371zm-1.997 3.302c-.487.471-1.132.7-1.974.7H4.017c-.842 0-1.488-.229-1.974-.7-.477-.463-.708-1.095-.708-1.93 0-.436.014-.865.042-1.277.027-.405.083-.85.167-1.322.082-.466.186-.903.31-1.3a6 6 0 01.485-1.118c.192-.345.414-.642.659-.88.229-.224.517-.406.857-.543a3.021 3.021 0 011.05-.207c.048.025.13.073.266.163.274.182.59.39.94.618.394.256.902.487 1.508.687a6 6 0 001.88.308c.628 0 1.26-.104 1.88-.308.608-.2 1.115-.431 1.51-.688.357-.233.665-.434.94-.617.134-.09.217-.138.264-.163.384.01.737.08 1.051.207.34.137.629.32.857.543.245.238.467.534.66.88.201.362.364.739.483 1.118.125.397.23.834.312 1.3.083.473.14.918.167 1.322.028.41.042.84.042 1.276 0 .837-.232 1.468-.708 1.93z" fill="#2F3035"/></svg>